<svg xmlns="http://www.w3.org/2000/svg" width="1312pt" height="296" version="1.1" viewBox="0 0 1312 222"><g id="#f66930fff"><path fill="#f66930" d="M 43.30 0.68 C 58.81 16.18 73.66 32.34 89.05 47.95 C 93.30 52.04 96.80 57.43 102.69 59.30 C 106.46 61.01 111.25 61.53 113.74 65.21 C 116.87 69.58 119.68 74.17 122.39 78.81 C 112.61 74.90 102.86 70.93 93.12 66.93 C 89.74 65.50 86.15 64.19 83.55 61.48 C 74.28 51.87 65.62 41.67 55.92 32.48 C 53.39 49.95 50.35 67.34 47.47 84.76 C 40.72 87.27 33.86 89.44 26.89 91.27 C 28.73 95.96 30.61 100.63 32.68 105.22 C 21.75 96.21 11.15 86.78 0.64 77.28 C 12.34 76.13 24.09 75.36 35.84 74.88 C 38.30 50.14 40.68 25.39 43.30 0.68 Z" opacity="1"/></g><g id="#ffffffff"><path fill="#fff" d="M 512.68 40.68 C 519.09 34.94 525.53 29.21 532.27 23.84 C 532.62 55.45 532.29 87.07 532.41 118.68 C 534.57 117.77 537.03 117.41 538.81 115.77 C 551.16 105.47 563.42 95.05 575.91 84.92 C 579.11 82.40 582.55 79.39 586.93 79.70 C 595.72 79.71 604.51 79.66 613.30 79.90 C 602.18 90.67 589.88 100.09 578.24 110.28 C 575.16 112.97 571.63 115.21 568.97 118.35 C 568.03 120.97 570.96 122.80 572.40 124.61 C 587.26 138.07 603.19 150.33 617.95 163.91 C 609.28 163.68 600.63 162.82 591.95 163.35 C 588.95 163.20 585.45 164.25 582.89 162.18 C 567.77 149.31 553.05 135.95 538.18 122.79 C 536.48 121.47 534.45 120.70 532.58 119.69 C 532.22 134.45 532.65 149.22 532.37 163.99 C 524.35 164.05 516.33 164.08 508.32 163.92 C 508.53 147.62 508.29 131.31 508.41 115.01 C 508.56 107.98 507.25 101.03 507.44 94.00 C 507.54 79.00 507.32 63.99 507.41 48.99 C 507.24 45.36 510.39 43.00 512.68 40.68 Z" opacity="1"/><path fill="#fff" d="M 1288.99 43.00 C 1296.34 36.71 1303.08 29.73 1310.69 23.73 C 1310.83 31.18 1309.34 38.55 1309.64 46.01 C 1309.63 50.62 1310.54 55.19 1310.43 59.80 C 1309.07 74.16 1309.91 88.60 1309.71 103.00 C 1310.59 116.53 1308.79 130.11 1310.18 143.63 C 1310.97 150.29 1310.63 157.00 1310.55 163.68 C 1302.94 164.20 1295.32 164.05 1287.71 163.98 C 1287.86 158.68 1287.50 153.39 1287.68 148.10 C 1286.95 147.89 1285.49 147.47 1284.76 147.27 C 1278.71 153.14 1272.89 159.72 1264.91 162.99 C 1255.84 166.50 1245.65 167.50 1236.21 164.89 C 1226.02 162.40 1216.00 156.56 1210.94 147.06 C 1204.09 134.68 1203.01 119.52 1206.92 106.02 C 1209.26 98.36 1213.54 90.89 1220.39 86.44 C 1228.72 80.66 1238.99 78.28 1249.00 77.90 C 1258.19 78.76 1267.89 80.78 1275.21 86.79 C 1278.28 89.27 1281.12 92.22 1284.92 93.60 C 1286.98 92.53 1286.48 89.96 1286.69 88.03 C 1286.61 75.67 1286.67 63.32 1286.55 50.96 C 1286.53 48.14 1286.42 44.85 1288.99 43.00 M 1247.39 98.29 C 1242.44 99.30 1237.33 101.00 1233.74 104.73 C 1224.41 114.44 1224.86 132.76 1236.21 140.77 C 1244.58 146.48 1255.43 147.44 1265.15 145.33 C 1272.45 143.84 1279.95 140.50 1284.09 134.01 C 1286.53 130.13 1289.43 125.97 1289.51 121.23 C 1288.12 113.28 1282.74 106.13 1275.79 102.13 C 1267.10 97.77 1256.92 96.70 1247.39 98.29 Z" opacity="1"/><path fill="#fff" d="M 744.85 39.89 C 750.57 34.77 756.08 29.38 762.23 24.75 C 762.89 48.30 761.89 71.89 762.79 95.43 C 769.46 92.58 773.13 85.75 779.63 82.63 C 789.10 77.97 800.21 76.79 810.47 79.32 C 817.92 80.58 825.38 83.74 830.04 89.94 C 836.62 97.67 836.74 108.36 837.04 117.97 C 836.91 133.30 836.38 148.61 836.30 163.93 C 828.92 164.18 821.54 164.09 814.22 163.05 C 814.10 148.01 814.31 132.97 814.17 117.93 C 814.28 112.39 810.81 107.64 806.66 104.35 C 800.92 99.64 793.14 98.82 785.99 98.65 C 777.92 98.38 770.01 101.74 764.05 107.05 C 762.26 108.46 762.50 110.89 762.39 112.92 C 762.42 129.67 762.55 146.42 762.35 163.17 C 754.77 163.25 747.20 163.24 739.62 163.18 C 739.28 152.23 739.92 141.27 739.29 130.33 C 738.31 122.59 738.59 114.78 738.60 107.00 C 738.56 87.97 738.62 68.93 738.52 49.91 C 738.19 45.50 742.11 42.71 744.85 39.89 Z" opacity="1"/><path fill="#fff" d="M 471.45 32.57 C 476.29 31.94 481.73 33.24 485.39 36.57 C 489.43 41.71 492.12 49.00 489.54 55.39 C 486.69 63.54 476.27 67.79 468.43 64.43 C 458.96 61.22 455.60 48.12 461.09 40.16 C 463.52 36.57 467.05 33.38 471.45 32.57 Z" opacity="1"/><path fill="#fff" d="M 58.87 41.44 C 65.12 47.44 70.60 54.15 76.40 60.57 C 79.57 64.05 82.43 68.30 87.11 69.87 C 97.25 73.46 107.35 77.19 117.63 80.39 C 120.05 81.35 123.27 81.90 124.26 84.68 C 126.21 89.26 127.79 93.98 129.39 98.68 C 144.92 100.52 160.45 102.42 175.93 104.59 C 174.11 109.12 172.10 113.57 169.93 117.94 C 167.87 116.43 165.67 115.14 163.34 114.11 C 163.57 111.90 163.79 109.68 163.99 107.47 C 161.20 107.43 158.42 107.32 155.64 107.18 C 158.80 113.03 163.49 117.78 168.25 122.34 C 164.48 125.01 160.56 127.47 156.32 129.33 C 151.37 131.50 146.71 135.12 141.07 135.02 C 132.66 135.07 124.32 133.69 115.92 133.59 C 113.27 133.29 111.46 135.47 109.47 136.79 C 117.93 138.02 126.51 137.92 135.02 138.56 C 139.13 138.77 143.52 139.31 147.32 137.31 C 152.98 134.53 158.38 131.23 164.08 128.53 C 163.26 131.44 162.81 134.57 161.18 137.17 C 158.40 139.93 154.60 141.27 151.34 143.35 C 147.73 145.30 144.35 148.30 140.05 148.42 C 131.68 148.59 123.32 147.44 114.95 147.63 C 112.98 147.54 111.41 148.83 110.03 150.06 C 99.30 160.50 89.22 171.62 78.06 181.61 C 75.15 173.27 72.75 164.76 70.27 156.29 C 78.11 152.59 86.14 149.26 93.50 144.67 C 81.33 140.42 68.81 137.28 56.63 133.06 C 57.57 122.75 58.80 112.46 59.86 102.16 C 46.83 116.35 33.09 129.87 19.88 143.89 C 14.58 149.27 9.51 154.90 3.89 159.95 C 11.17 147.37 19.32 135.33 26.98 122.99 C 30.66 116.83 35.12 111.20 39.83 105.81 C 37.75 101.97 36.12 97.89 33.97 94.08 C 39.67 92.45 45.25 90.42 50.94 88.76 C 53.89 73.04 56.42 57.24 58.87 41.44 M 93.66 92.28 C 95.96 92.65 98.33 92.79 100.57 93.49 C 103.59 95.36 105.48 98.65 108.64 100.32 C 111.35 101.10 114.20 101.08 116.99 101.31 C 115.27 97.18 113.15 93.23 111.17 89.23 C 105.34 90.30 99.46 91.10 93.66 92.28 Z" opacity="1"/><path fill="#fff" d="M 215.20 48.14 C 220.93 44.98 227.35 42.76 233.93 42.51 C 266.56 42.36 299.20 42.77 331.83 42.32 C 325.20 48.20 319.40 54.94 312.67 60.71 C 308.87 64.30 305.25 68.07 301.78 71.97 C 300.20 69.95 298.80 67.66 296.56 66.30 C 289.32 63.34 281.52 65.78 274.01 65.62 C 263.00 65.62 251.98 65.60 240.96 65.56 C 236.43 65.48 231.16 66.46 228.65 70.68 C 225.81 75.63 225.51 82.89 230.01 86.99 C 233.13 90.06 237.85 90.17 241.96 90.34 C 255.66 90.35 269.35 90.25 283.05 90.34 C 294.19 90.64 306.27 92.32 314.81 100.15 C 321.17 106.76 325.50 115.69 325.49 124.97 C 325.96 135.88 321.47 147.00 313.13 154.14 C 304.38 161.81 292.34 164.01 281.03 164.03 C 268.67 163.96 256.31 164.08 243.96 163.93 C 226.26 162.50 208.49 163.74 190.76 163.09 C 201.12 151.92 212.35 141.59 222.97 130.66 C 225.86 134.15 228.80 139.03 233.97 138.84 C 249.33 139.01 264.69 138.91 280.05 139.06 C 285.03 139.26 290.53 137.88 293.47 133.53 C 298.06 127.76 296.48 117.77 289.56 114.60 C 281.59 111.16 272.83 113.72 264.51 112.72 C 253.16 111.47 241.56 113.70 230.36 110.90 C 221.57 108.86 212.39 105.67 206.31 98.66 C 199.42 90.36 198.24 78.78 200.27 68.51 C 202.07 59.98 208.05 52.84 215.20 48.14 Z" opacity="1"/><path fill="#fff" d="M 376.83 86.89 C 383.93 81.12 393.15 79.07 402.02 77.97 C 415.24 77.19 429.66 81.12 438.38 91.66 C 448.14 102.89 450.32 118.74 447.75 132.99 C 446.54 140.14 442.37 146.31 437.99 151.91 C 432.02 159.57 422.68 163.96 413.23 165.43 C 401.95 167.68 390.09 165.20 379.93 160.07 C 373.93 157.21 370.38 150.77 363.76 149.00 C 363.31 163.68 363.67 178.37 363.62 193.05 C 363.58 195.14 363.43 197.38 362.06 199.08 C 358.31 203.98 353.02 207.35 348.70 211.69 C 345.91 214.49 342.98 217.15 339.91 219.64 C 339.36 211.77 339.67 203.88 339.62 196.00 C 339.60 161.31 339.63 126.62 339.54 91.93 C 339.71 89.78 339.35 86.84 341.74 85.76 C 348.62 82.55 356.27 81.60 363.59 79.81 C 363.40 85.55 363.59 91.30 363.75 97.04 C 369.49 95.67 372.41 90.24 376.83 86.89 M 383.38 99.22 C 373.15 100.40 365.20 108.85 361.75 118.13 C 360.56 124.10 364.19 129.75 367.65 134.30 C 374.41 143.22 386.19 146.79 397.01 146.22 C 405.44 145.50 414.44 142.73 419.85 135.81 C 428.97 124.64 424.35 104.10 409.80 100.10 C 401.19 97.97 392.13 98.39 383.38 99.22 Z" opacity="1"/><path fill="#fff" d="M 646.17 81.21 C 655.19 78.43 664.82 76.81 674.21 78.62 C 687.31 80.12 700.56 84.54 710.43 93.56 C 719.66 102.46 723.78 115.29 725.22 127.74 C 696.08 127.93 666.94 127.43 637.81 127.97 C 638.94 133.41 640.77 139.10 645.40 142.59 C 652.85 148.66 663.09 147.26 672.03 147.39 C 683.08 147.48 692.94 141.04 700.26 133.24 C 706.09 137.40 710.88 142.75 716.48 147.19 C 709.12 154.57 699.80 159.70 690.02 163.13 C 673.04 168.88 653.91 167.03 637.97 159.03 C 624.85 151.97 614.67 138.22 614.31 123.01 C 614.78 115.71 615.86 108.09 619.81 101.77 C 625.70 92.01 635.31 84.63 646.17 81.21 M 639.08 109.98 C 638.22 111.85 638.22 113.97 637.81 115.96 C 645.87 116.35 653.94 116.18 662.00 115.88 C 674.43 115.93 686.88 116.65 699.30 115.77 C 699.16 108.82 692.98 104.58 687.53 101.48 C 680.41 97.43 671.93 97.32 663.98 97.80 C 654.59 98.55 644.66 101.95 639.08 109.98 Z" opacity="1"/><path fill="#fff" d="M 896.37 78.30 C 903.93 77.34 911.48 78.89 918.95 79.92 C 929.34 81.78 939.56 86.35 946.90 94.08 C 956.97 105.42 960.43 122.43 954.78 136.63 C 951.93 143.52 947.97 150.37 941.65 154.63 C 930.31 163.06 915.90 166.29 901.97 166.32 C 883.44 165.64 863.70 157.75 853.94 141.18 C 848.44 132.86 848.48 122.30 850.06 112.82 C 853.75 99.50 863.90 88.09 876.62 82.68 C 882.80 79.78 889.68 79.15 896.37 78.30 M 892.35 99.23 C 884.00 100.66 876.19 106.44 873.71 114.74 C 869.76 124.78 875.30 136.59 884.57 141.46 C 897.96 148.81 916.22 148.16 927.99 137.96 C 939.14 128.31 935.22 107.67 921.80 102.11 C 912.61 98.12 902.15 98.06 892.35 99.23 Z" opacity="1"/><path fill="#fff" d="M 1124.91 86.96 C 1134.41 79.53 1147.03 76.73 1158.89 78.12 C 1167.57 79.41 1176.73 82.53 1182.29 89.73 C 1188.12 97.49 1190.67 107.34 1190.59 116.95 C 1190.55 132.53 1190.55 148.11 1190.55 163.68 C 1182.82 164.19 1175.09 164.07 1167.36 163.90 C 1167.54 150.92 1167.46 137.94 1167.48 124.96 C 1167.25 116.68 1165.28 106.94 1157.47 102.48 C 1149.77 97.09 1139.98 97.13 1131.01 97.87 C 1124.21 98.67 1118.25 102.79 1113.67 107.66 C 1111.43 109.81 1111.71 113.13 1111.62 115.97 C 1111.77 131.68 1111.62 147.40 1111.72 163.11 C 1104.39 163.29 1097.07 163.27 1089.75 163.20 C 1089.70 137.53 1089.62 111.87 1089.79 86.20 C 1097.17 84.25 1104.40 81.78 1111.85 80.05 C 1111.61 85.65 1111.84 91.25 1111.81 96.85 C 1113.39 96.53 1115.07 96.40 1116.61 95.75 C 1119.63 93.08 1121.70 89.46 1124.91 86.96 Z" opacity="1"/><path fill="#fff" d="M 467.83 83.93 C 473.84 82.47 479.88 81.13 485.90 79.68 C 485.98 89.45 485.77 99.24 486.12 109.01 C 487.19 119.64 486.71 130.33 486.79 141.00 C 486.83 148.59 486.86 156.17 486.69 163.76 C 478.71 164.17 470.73 164.02 462.75 163.98 C 462.37 143.66 463.41 123.31 461.97 103.03 C 462.00 97.48 461.45 91.87 462.25 86.36 C 463.77 84.93 465.90 84.51 467.83 83.93 Z" opacity="1"/><path fill="#fff" d="M 969.22 85.44 C 976.45 82.75 983.99 80.88 991.59 79.53 C 991.46 94.36 991.56 109.19 991.48 124.02 C 991.43 127.73 992.00 131.62 994.28 134.66 C 999.16 141.56 1007.63 145.29 1015.96 145.32 C 1026.63 145.83 1038.09 144.42 1046.87 137.86 C 1050.00 135.65 1050.59 131.60 1050.49 128.04 C 1050.34 113.75 1050.48 99.45 1050.37 85.16 C 1057.92 82.94 1065.51 80.85 1073.27 79.47 C 1073.53 107.37 1073.41 135.28 1073.34 163.18 C 1065.99 163.24 1058.65 163.30 1051.32 163.00 C 1051.69 157.39 1051.22 151.78 1051.22 146.17 C 1047.33 146.66 1044.78 149.61 1042.31 152.32 C 1029.41 166.02 1008.00 169.90 990.62 163.43 C 979.51 159.25 971.06 148.75 969.80 136.88 C 968.88 125.28 968.43 113.64 968.63 102.00 C 968.83 96.49 967.84 90.84 969.22 85.44 Z" opacity="1"/></g></svg>