<svg xmlns="http://www.w3.org/2000/svg" width="326pt" height="325pt" version="1.1" viewBox="0 0 326 325"><g id="#f66930fff"><path fill="#f66930" d="M 87.76 9.75 C 90.73 11.52 92.79 14.35 95.17 16.79 C 122.81 45.82 150.55 74.76 178.50 103.48 C 180.79 106.15 184.32 106.97 187.45 108.21 C 192.92 110.21 198.26 112.55 203.75 114.48 C 209.40 123.74 216.16 132.32 221.27 141.89 C 217.41 139.39 213.00 138.00 208.79 136.23 C 192.32 129.38 175.61 123.06 159.38 115.67 C 156.21 113.19 153.92 109.75 150.99 106.99 C 136.99 92.08 123.21 76.95 108.97 62.26 C 106.86 81.12 103.15 99.76 100.28 118.52 C 98.31 129.48 96.89 140.54 94.47 151.41 C 83.23 155.36 71.84 158.99 60.34 162.08 C 62.57 170.38 67.19 177.73 70.03 185.78 C 60.31 177.58 50.65 169.29 41.28 160.68 C 32.76 153.33 24.21 146.00 15.77 138.56 C 35.59 136.77 55.43 135.33 75.32 134.52 C 79.65 92.95 83.63 51.34 87.76 9.75 Z" opacity="1"/></g><g id="#ffffffff"><path fill="#fff" d="M 110.16 104.18 C 111.58 95.25 112.48 86.26 113.78 77.32 C 128.02 92.71 141.64 108.70 155.82 124.10 C 170.74 129.03 185.28 135.04 200.25 139.82 C 207.61 142.54 215.26 144.55 222.51 147.47 C 226.28 156.41 229.17 165.71 232.67 174.77 C 254.27 177.40 275.95 179.52 297.46 182.86 C 301.86 183.63 306.29 184.27 310.75 184.69 C 307.59 192.16 304.30 199.58 300.77 206.89 C 297.21 204.19 293.13 202.34 289.14 200.41 C 290.12 196.96 291.04 193.49 291.74 189.97 C 286.68 189.38 281.62 188.78 276.53 188.53 C 281.09 198.75 289.59 206.27 297.45 213.92 C 296.13 215.45 294.88 217.14 293.08 218.13 C 283.98 223.17 274.62 227.72 265.24 232.20 C 261.93 233.65 258.85 236.36 255.01 235.89 C 241.34 235.44 227.69 234.38 214.05 233.41 C 211.44 233.28 208.79 232.81 206.20 233.25 C 203.34 234.81 200.95 237.06 198.54 239.22 C 216.70 240.61 234.89 241.35 253.06 242.32 C 255.23 242.43 257.50 242.50 259.43 241.34 C 270.13 235.79 280.93 230.40 291.23 224.12 C 289.92 229.07 288.25 233.90 286.75 238.79 C 286.31 240.55 284.49 241.25 283.08 242.08 C 274.10 246.49 265.67 251.88 257.12 257.04 C 255.84 257.77 254.50 258.61 252.96 258.48 C 242.96 258.39 232.98 257.54 222.97 257.41 C 216.93 257.31 210.89 256.43 204.84 256.87 C 203.50 257.40 202.57 258.63 201.50 259.56 C 191.39 269.78 181.09 279.80 171.15 290.19 C 162.67 298.19 154.83 306.85 146.14 314.62 C 141.78 300.36 137.54 286.07 133.23 271.80 C 146.78 265.47 160.29 259.01 173.57 252.12 C 152.54 245.29 131.16 239.56 110.22 232.43 C 112.15 215.07 113.77 197.68 115.75 180.32 C 104.19 193.56 91.42 205.64 79.40 218.44 C 59.54 238.92 40.09 259.80 19.87 279.91 C 35.95 254.63 51.74 229.16 67.97 203.97 C 72.13 197.69 77.87 192.65 82.07 186.40 C 78.94 179.78 75.65 173.25 72.11 166.85 C 81.77 163.68 91.74 161.36 101.17 157.52 C 103.54 139.64 107.49 122.01 110.16 104.18 M 169.82 164.16 C 174.66 165.20 179.62 164.94 184.53 164.80 C 188.09 169.42 192.20 173.61 196.56 177.48 C 201.55 178.46 206.68 178.93 211.77 178.99 C 209.11 171.85 204.92 165.41 202.11 158.34 C 191.54 161.19 180.47 161.62 169.82 164.16 Z" opacity="1"/></g></svg>