<svg xmlns="http://www.w3.org/2000/svg" viewBox="0 0 529.75 622.5" style="--bg:#ffffff;--fg:#1f2328;--line:#d1d9e0;--accent:#0969da;--muted:#59636e;background:var(--bg)">
<style>
  @import url('https://fonts.googleapis.com/css2?family=Inter:wght@400;500;600;700&amp;display=swap');
  text { font-family: 'Inter', system-ui, sans-serif; }
  svg {
    /* Derived from --bg and --fg (overridable via --line, --accent, etc.) */
    --_text:          var(--fg);
    --_text-sec:      var(--muted, color-mix(in srgb, var(--fg) 60%, var(--bg)));
    --_text-muted:    var(--muted, color-mix(in srgb, var(--fg) 40%, var(--bg)));
    --_text-faint:    color-mix(in srgb, var(--fg) 25%, var(--bg));
    --_line:          var(--line, color-mix(in srgb, var(--fg) 30%, var(--bg)));
    --_arrow:         var(--accent, color-mix(in srgb, var(--fg) 50%, var(--bg)));
    --_node-fill:     var(--surface, color-mix(in srgb, var(--fg) 3%, var(--bg)));
    --_node-stroke:   var(--border, color-mix(in srgb, var(--fg) 20%, var(--bg)));
    --_group-fill:    var(--bg);
    --_group-hdr:     color-mix(in srgb, var(--fg) 5%, var(--bg));
    --_inner-stroke:  color-mix(in srgb, var(--fg) 12%, var(--bg));
    --_key-badge:     color-mix(in srgb, var(--fg) 10%, var(--bg));
  }
</style>
<defs>
  <marker id="arrowhead" markerWidth="8" markerHeight="4.8" refX="8" refY="2.4" orient="auto">
    <polygon points="0 0, 8 2.4, 0 4.8" fill="var(--_arrow)" />
  </marker>
  <marker id="arrowhead-start" markerWidth="8" markerHeight="4.8" refX="0" refY="2.4" orient="auto-start-reverse">
    <polygon points="8 0, 0 2.4, 8 4.8" fill="var(--_arrow)" />
  </marker>
</defs>
<polyline points="261.3,68 261.3,88 98.05000000000001,88 98.05000000000001,108" fill="none" stroke="var(--_line)" stroke-width="0.75" marker-end="url(#arrowhead)" />
<polyline points="261.3,68 261.3,108" fill="none" stroke="var(--_line)" stroke-width="0.75" marker-end="url(#arrowhead)" />
<polyline points="261.3,68 261.3,88 428.125,88 428.125,108" fill="none" stroke="var(--_line)" stroke-width="0.75" marker-end="url(#arrowhead)" />
<polyline points="98.05000000000001,144 98.05000000000001,202 109.44999999999999,202" fill="none" stroke="var(--_line)" stroke-width="0.75" marker-end="url(#arrowhead)" />
<polyline points="261.3,144 261.3,184" fill="none" stroke="var(--_line)" stroke-width="0.75" marker-end="url(#arrowhead)" />
<polyline points="428.125,144 428.125,202 413.15000000000003,202" fill="none" stroke="var(--_line)" stroke-width="0.75" marker-end="url(#arrowhead)" />
<polyline points="261.3,220 261.3,248.5 195.82000000000002,248.5 195.82000000000002,277" fill="none" stroke="var(--_line)" stroke-width="0.75" marker-end="url(#arrowhead)" />
<polyline points="261.3,220 261.3,248.5 326.78000000000003,248.5 326.78000000000003,277" fill="none" stroke="var(--_line)" stroke-width="0.75" marker-end="url(#arrowhead)" />
<polyline points="195.82000000000002,313 195.82000000000002,396.4651619856717 234.83483801432828,396.4651619856717" fill="none" stroke="var(--_line)" stroke-width="0.75" marker-end="url(#arrowhead)" />
<polyline points="326.78000000000003,313 326.78000000000003,396.4651619856717 287.76516198567174,396.4651619856717" fill="none" stroke="var(--_line)" stroke-width="0.75" marker-end="url(#arrowhead)" />
<polyline points="226.5952525003087,462.79525250030866 226.5952525003087,526 151.075,526 151.075,554.5" fill="none" stroke="var(--_line)" stroke-width="0.75" marker-end="url(#arrowhead)" />
<polyline points="296.5086872118418,462.2913127881582 296.5086872118418,526 375.1,526 375.1,554.5" fill="none" stroke="var(--_line)" stroke-width="0.75" marker-end="url(#arrowhead)" />
<rect x="136.34000000000003" y="235" width="118.96000000000001" height="27" rx="4" ry="4" fill="var(--bg)" stroke="var(--_inner-stroke)" stroke-width="0.5" />
<text x="195.82000000000002" y="248.5" text-anchor="middle" dy="0.35em" font-size="11" font-weight="400" fill="var(--_text-muted)">&quot;Remediation Plan&quot;</text>
<rect x="267.3" y="235" width="118.96000000000001" height="27" rx="4" ry="4" fill="var(--bg)" stroke="var(--_inner-stroke)" stroke-width="0.5" />
<text x="326.78000000000003" y="248.5" text-anchor="middle" dy="0.35em" font-size="11" font-weight="400" fill="var(--_text-muted)">&quot;Remediation Plan&quot;</text>
<rect x="142.06" y="328" width="107.52000000000001" height="27" rx="4" ry="4" fill="var(--bg)" stroke="var(--_inner-stroke)" stroke-width="0.5" />
<text x="195.82000000000002" y="341.5" text-anchor="middle" dy="0.35em" font-size="11" font-weight="400" fill="var(--_text-muted)">&quot;Human decision&quot;</text>
<rect x="273.02000000000004" y="328" width="107.52000000000001" height="27" rx="4" ry="4" fill="var(--bg)" stroke="var(--_inner-stroke)" stroke-width="0.5" />
<text x="326.78000000000003" y="341.5" text-anchor="middle" dy="0.35em" font-size="11" font-weight="400" fill="var(--_text-muted)">&quot;Human decision&quot;</text>
<rect x="88.73499999999999" y="512.5" width="124.68" height="27" rx="4" ry="4" fill="var(--bg)" stroke="var(--_inner-stroke)" stroke-width="0.5" />
<text x="151.075" y="526" text-anchor="middle" dy="0.35em" font-size="11" font-weight="400" fill="var(--_text-muted)">&quot;Approve + enabled&quot;</text>
<rect x="312.76" y="512.5" width="124.68" height="27" rx="4" ry="4" fill="var(--bg)" stroke="var(--_inner-stroke)" stroke-width="0.5" />
<text x="375.1" y="526" text-anchor="middle" dy="0.35em" font-size="11" font-weight="400" fill="var(--_text-muted)">&quot;Reject / disabled&quot;</text>
<rect x="155.925" y="32" width="210.75000000000003" height="36" rx="18" ry="18" fill="#e6f3ff" stroke="#0066cc" stroke-width="0.75" />
<rect x="32" y="108" width="132.10000000000002" height="36" rx="0" ry="0" fill="#f0f7ee" stroke="#3a7d44" stroke-width="0.75" />
<rect x="188.10000000000002" y="108" width="146.4" height="36" rx="0" ry="0" fill="#f0f7ee" stroke="#3a7d44" stroke-width="0.75" />
<rect x="358.5" y="108" width="139.25" height="36" rx="0" ry="0" fill="#f0f7ee" stroke="#3a7d44" stroke-width="0.75" />
<rect x="109.44999999999999" y="184" width="303.70000000000005" height="36" rx="0" ry="0" fill="#f0f7ee" stroke="#3a7d44" stroke-width="0.75" />
<rect x="154.79500000000002" y="277" width="82.05000000000001" height="36" rx="0" ry="0" fill="#fff8e1" stroke="#f9a825" stroke-width="0.75" />
<rect x="278.605" y="277" width="96.35000000000001" height="36" rx="0" ry="0" fill="#fff8e1" stroke="#f9a825" stroke-width="0.75" />
<polygon points="261.3,370 325.05,433.75 261.3,497.5 197.55,433.75" fill="#fafafa" stroke="#9e9e9e" stroke-width="0.75" />
<rect x="49.27499999999998" y="554.5" width="203.60000000000002" height="36" rx="0" ry="0" fill="#e6f3ff" stroke="#0066cc" stroke-width="0.75" />
<rect x="276.875" y="554.5" width="196.45000000000002" height="36" rx="0" ry="0" fill="#e8f5e9" stroke="#2e7d32" stroke-width="0.75" />
<text x="261.3" y="50" text-anchor="middle" dy="0.35em" font-size="13" font-weight="500" fill="#003d7a">Azure Monitor\nCost Alert</text>
<text x="98.05000000000001" y="126" text-anchor="middle" dy="0.35em" font-size="13" font-weight="500" fill="#1b4332">&quot;Cost Analyst&quot;</text>
<text x="261.3" y="126" text-anchor="middle" dy="0.35em" font-size="13" font-weight="500" fill="#1b4332">&quot;Resource Agent&quot;</text>
<text x="428.125" y="126" text-anchor="middle" dy="0.35em" font-size="13" font-weight="500" fill="#1b4332">&quot;History Agent&quot;</text>
<text x="261.3" y="202" text-anchor="middle" dy="0.35em" font-size="13" font-weight="500" fill="#1b4332">&quot;Diagnosis Agent\nAI Foundry / GPT-4o&quot;</text>
<text x="195.82000000000002" y="295" text-anchor="middle" dy="0.35em" font-size="13" font-weight="500" fill="#5d4037">&quot;Slack&quot;</text>
<text x="326.78000000000003" y="295" text-anchor="middle" dy="0.35em" font-size="13" font-weight="500" fill="#5d4037">&quot;Discord&quot;</text>
<text x="261.3" y="433.75" text-anchor="middle" dy="0.35em" font-size="13" font-weight="500" fill="#212121">&quot;Approve?&quot;</text>
<text x="151.075" y="572.5" text-anchor="middle" dy="0.35em" font-size="13" font-weight="500" fill="#003d7a">&quot;Azure Compute\nstop_vm&quot;</text>
<text x="375.1" y="572.5" text-anchor="middle" dy="0.35em" font-size="13" font-weight="500" fill="#1b5e20">&quot;Skipped\nsafe default&quot;</text>
</svg>