<svg xmlns="http://www.w3.org/2000/svg" viewBox="0 0 918.75 795.7" style="--bg:#ffffff;--fg:#1f2328;--line:#d1d9e0;--accent:#0969da;--muted:#59636e;background:var(--bg)">
<style>
  @import url('https://fonts.googleapis.com/css2?family=Inter:wght@400;500;600;700&amp;display=swap');
  text { font-family: 'Inter', system-ui, sans-serif; }
  svg {
    /* Derived from --bg and --fg (overridable via --line, --accent, etc.) */
    --_text:          var(--fg);
    --_text-sec:      var(--muted, color-mix(in srgb, var(--fg) 60%, var(--bg)));
    --_text-muted:    var(--muted, color-mix(in srgb, var(--fg) 40%, var(--bg)));
    --_text-faint:    color-mix(in srgb, var(--fg) 25%, var(--bg));
    --_line:          var(--line, color-mix(in srgb, var(--fg) 30%, var(--bg)));
    --_arrow:         var(--accent, color-mix(in srgb, var(--fg) 50%, var(--bg)));
    --_node-fill:     var(--surface, color-mix(in srgb, var(--fg) 3%, var(--bg)));
    --_node-stroke:   var(--border, color-mix(in srgb, var(--fg) 20%, var(--bg)));
    --_group-fill:    var(--bg);
    --_group-hdr:     color-mix(in srgb, var(--fg) 5%, var(--bg));
    --_inner-stroke:  color-mix(in srgb, var(--fg) 12%, var(--bg));
    --_key-badge:     color-mix(in srgb, var(--fg) 10%, var(--bg));
  }
</style>
<defs>
  <marker id="arrowhead" markerWidth="8" markerHeight="4.8" refX="8" refY="2.4" orient="auto">
    <polygon points="0 0, 8 2.4, 0 4.8" fill="var(--_arrow)" />
  </marker>
  <marker id="arrowhead-start" markerWidth="8" markerHeight="4.8" refX="0" refY="2.4" orient="auto-start-reverse">
    <polygon points="8 0, 0 2.4, 8 4.8" fill="var(--_arrow)" />
  </marker>
</defs>
<polyline points="448.65,52 448.65,64" fill="none" stroke="var(--_line)" stroke-width="0.75" marker-end="url(#arrowhead)" />
<polyline points="448.65,100 448.65,106 157.125,106 157.125,112" fill="none" stroke="var(--_line)" stroke-width="0.75" marker-end="url(#arrowhead)" />
<polyline points="448.65,100 448.65,112" fill="none" stroke="var(--_line)" stroke-width="0.75" marker-end="url(#arrowhead)" />
<polyline points="448.65,100 448.65,106 750.9,106 750.9,112" fill="none" stroke="var(--_line)" stroke-width="0.75" marker-end="url(#arrowhead)" />
<polyline points="157.125,148 157.125,178 368.29999999999995,178" fill="none" stroke="var(--_line)" stroke-width="0.75" marker-end="url(#arrowhead)" />
<polyline points="448.65,148 448.65,160" fill="none" stroke="var(--_line)" stroke-width="0.75" marker-end="url(#arrowhead)" />
<polyline points="750.9,148 750.9,178 529,178" fill="none" stroke="var(--_line)" stroke-width="0.75" marker-end="url(#arrowhead)" />
<polyline points="448.65,196 448.65,208" fill="none" stroke="var(--_line)" stroke-width="0.75" marker-end="url(#arrowhead)" />
<polyline points="448.65,244 448.65,256" fill="none" stroke="var(--_line)" stroke-width="0.75" marker-end="url(#arrowhead)" />
<polyline points="448.65,292 448.65,298 343.13,298 343.13,304" fill="none" stroke="var(--_line)" stroke-width="0.75" marker-end="url(#arrowhead)" />
<polyline points="448.65,292 448.65,298 554.17,298 554.17,304" fill="none" stroke="var(--_line)" stroke-width="0.75" marker-end="url(#arrowhead)" />
<polyline points="343.13,340 343.13,387 371.875,387" fill="none" stroke="var(--_line)" stroke-width="0.75" marker-end="url(#arrowhead)" />
<polyline points="554.17,340 554.17,387 525.425,387" fill="none" stroke="var(--_line)" stroke-width="0.75" marker-end="url(#arrowhead)" />
<polyline points="448.65,405 448.65,434" fill="none" stroke="var(--_line)" stroke-width="0.75" marker-end="url(#arrowhead)" />
<polyline points="400.7036337045787,570.7536337045788 400.7036337045787,633.2 333.275,633.2 333.275,647.7" fill="none" stroke="var(--_line)" stroke-width="0.75" marker-end="url(#arrowhead)" />
<polyline points="496.59636629542126,570.7536337045788 496.59636629542126,633.2 564.025,633.2 564.025,647.7" fill="none" stroke="var(--_line)" stroke-width="0.75" marker-end="url(#arrowhead)" />
<polyline points="333.275,683.7 333.275,695.7" fill="none" stroke="var(--_line)" stroke-width="0.75" marker-end="url(#arrowhead)" />
<polyline points="333.275,731.7 333.275,743.7" fill="none" stroke="var(--_line)" stroke-width="0.75" marker-end="url(#arrowhead)" />
<rect x="243.60999999999999" y="341" width="199.04000000000002" height="27" rx="4" ry="4" fill="var(--bg)" stroke="var(--_inner-stroke)" stroke-width="0.5" />
<text x="343.13" y="354.5" text-anchor="middle" dy="0.35em" font-size="11" font-weight="400" fill="var(--_text-muted)">&quot;Approve / Reject / Investigate&quot;</text>
<rect x="454.65" y="341" width="199.04000000000002" height="27" rx="4" ry="4" fill="var(--bg)" stroke="var(--_inner-stroke)" stroke-width="0.5" />
<text x="554.17" y="354.5" text-anchor="middle" dy="0.35em" font-size="11" font-weight="400" fill="var(--_text-muted)">&quot;Approve / Reject / Investigate&quot;</text>
<rect x="414.90999999999997" y="406" width="67.48" height="27" rx="4" ry="4" fill="var(--bg)" stroke="var(--_inner-stroke)" stroke-width="0.5" />
<text x="448.65" y="419.5" text-anchor="middle" dy="0.35em" font-size="11" font-weight="400" fill="var(--_text-muted)">&quot;Approve&quot;</text>
<rect x="299.53499999999997" y="619.7" width="67.48" height="27" rx="4" ry="4" fill="var(--bg)" stroke="var(--_inner-stroke)" stroke-width="0.5" />
<text x="333.275" y="633.2" text-anchor="middle" dy="0.35em" font-size="11" font-weight="400" fill="var(--_text-muted)">&quot;enabled&quot;</text>
<rect x="527.425" y="619.7" width="73.2" height="27" rx="4" ry="4" fill="var(--bg)" stroke="var(--_inner-stroke)" stroke-width="0.5" />
<text x="564.025" y="633.2" text-anchor="middle" dy="0.35em" font-size="11" font-weight="400" fill="var(--_text-muted)">&quot;disabled&quot;</text>
<rect x="343.275" y="16" width="210.75000000000003" height="36" rx="18" ry="18" fill="#e6f3ff" stroke="#0066cc" stroke-width="0.75" />
<rect x="325.4" y="64" width="246.50000000000003" height="36" rx="0" ry="0" fill="#fafafa" stroke="#9e9e9e" stroke-width="0.75" />
<rect x="16" y="112" width="282.25" height="36" rx="0" ry="0" fill="#f0f7ee" stroke="#3a7d44" stroke-width="0.75" />
<rect x="318.25" y="112" width="260.8" height="36" rx="0" ry="0" fill="#f0f7ee" stroke="#3a7d44" stroke-width="0.75" />
<rect x="599.05" y="112" width="303.70000000000005" height="36" rx="0" ry="0" fill="#f0f7ee" stroke="#3a7d44" stroke-width="0.75" />
<rect x="368.29999999999995" y="160" width="160.70000000000002" height="36" rx="0" ry="0" fill="#fafafa" stroke="#9e9e9e" stroke-width="0.75" />
<rect x="296.79999999999995" y="208" width="303.70000000000005" height="36" rx="0" ry="0" fill="#f0f7ee" stroke="#3a7d44" stroke-width="0.75" />
<rect x="357.575" y="256" width="182.15" height="36" rx="0" ry="0" fill="#f0f7ee" stroke="#3a7d44" stroke-width="0.75" />
<rect x="302.105" y="304" width="82.05000000000001" height="36" rx="0" ry="0" fill="#fff8e1" stroke="#f9a825" stroke-width="0.75" />
<rect x="505.99499999999995" y="304" width="96.35000000000001" height="36" rx="0" ry="0" fill="#fff8e1" stroke="#f9a825" stroke-width="0.75" />
<rect x="371.875" y="369" width="153.55" height="36" rx="0" ry="0" fill="#fff8e1" stroke="#f9a825" stroke-width="0.75" />
<polygon points="448.65,434 541,526.35 448.65,618.7 356.29999999999995,526.35" fill="#fafafa" stroke="#9e9e9e" stroke-width="0.75" />
<rect x="224.325" y="647.7" width="217.9" height="36" rx="0" ry="0" fill="#fafafa" stroke="#9e9e9e" stroke-width="0.75" />
<rect x="462.22499999999997" y="647.7" width="203.60000000000002" height="36" rx="0" ry="0" fill="#e8f5e9" stroke="#2e7d32" stroke-width="0.75" />
<rect x="231.47499999999997" y="695.7" width="203.60000000000002" height="36" rx="0" ry="0" fill="#e6f3ff" stroke="#0066cc" stroke-width="0.75" />
<rect x="231.47499999999997" y="743.7" width="203.60000000000002" height="36" rx="0" ry="0" fill="#e8f5e9" stroke="#2e7d32" stroke-width="0.75" />
<text x="448.65" y="34" text-anchor="middle" dy="0.35em" font-size="13" font-weight="500" fill="#003d7a">Azure Monitor\nCost Alert</text>
<text x="448.65" y="82" text-anchor="middle" dy="0.35em" font-size="13" font-weight="500" fill="#212121">&quot;Webhook\n/api/webhooks/alert&quot;</text>
<text x="157.125" y="130" text-anchor="middle" dy="0.35em" font-size="13" font-weight="500" fill="#1b4332">&quot;Cost Analyst\nCost Management API&quot;</text>
<text x="448.65" y="130" text-anchor="middle" dy="0.35em" font-size="13" font-weight="500" fill="#1b4332">&quot;Resource Agent\nResource Graph&quot;</text>
<text x="750.9" y="130" text-anchor="middle" dy="0.35em" font-size="13" font-weight="500" fill="#1b4332">&quot;History Agent\nAI Search / Cosmos DB&quot;</text>
<text x="448.65" y="178" text-anchor="middle" dy="0.35em" font-size="13" font-weight="500" fill="#212121">&quot;Unified Findings&quot;</text>
<text x="448.65" y="226" text-anchor="middle" dy="0.35em" font-size="13" font-weight="500" fill="#1b4332">&quot;Diagnosis Agent\nAI Foundry / GPT-4o&quot;</text>
<text x="448.65" y="274" text-anchor="middle" dy="0.35em" font-size="13" font-weight="500" fill="#1b4332">&quot;Remediation Planner&quot;</text>
<text x="343.13" y="322" text-anchor="middle" dy="0.35em" font-size="13" font-weight="500" fill="#5d4037">&quot;Slack&quot;</text>
<text x="554.17" y="322" text-anchor="middle" dy="0.35em" font-size="13" font-weight="500" fill="#5d4037">&quot;Discord&quot;</text>
<text x="448.65" y="387" text-anchor="middle" dy="0.35em" font-size="13" font-weight="500" fill="#5d4037">&quot;Approval Record&quot;</text>
<text x="448.65" y="526.35" text-anchor="middle" dy="0.35em" font-size="13" font-weight="500" fill="#212121">&quot;Remediation Gate&quot;</text>
<text x="333.275" y="665.7" text-anchor="middle" dy="0.35em" font-size="13" font-weight="500" fill="#212121">&quot;Remediation Orchestrator&quot;</text>
<text x="564.025" y="665.7" text-anchor="middle" dy="0.35em" font-size="13" font-weight="500" fill="#1b5e20">&quot;Skipped — safe default&quot;</text>
<text x="333.275" y="713.7" text-anchor="middle" dy="0.35em" font-size="13" font-weight="500" fill="#003d7a">&quot;Azure Compute\nstop_vm&quot;</text>
<text x="333.275" y="761.7" text-anchor="middle" dy="0.35em" font-size="13" font-weight="500" fill="#1b5e20">&quot;Follow-up Notification&quot;</text>
</svg>