<svg xmlns="http://www.w3.org/2000/svg" viewBox="0 0 918.75 861.7" style="--bg:#ffffff;--fg:#1f2328;--line:#d1d9e0;--accent:#0969da;--muted:#59636e;background:var(--bg)">
<style>
  @import url('https://fonts.googleapis.com/css2?family=Inter:wght@400;500;600;700&amp;display=swap');
  text { font-family: 'Inter', system-ui, sans-serif; }
  svg {
    /* Derived from --bg and --fg (overridable via --line, --accent, etc.) */
    --_text:          var(--fg);
    --_text-sec:      var(--muted, color-mix(in srgb, var(--fg) 60%, var(--bg)));
    --_text-muted:    var(--muted, color-mix(in srgb, var(--fg) 40%, var(--bg)));
    --_text-faint:    color-mix(in srgb, var(--fg) 25%, var(--bg));
    --_line:          var(--line, color-mix(in srgb, var(--fg) 30%, var(--bg)));
    --_arrow:         var(--accent, color-mix(in srgb, var(--fg) 50%, var(--bg)));
    --_node-fill:     var(--surface, color-mix(in srgb, var(--fg) 3%, var(--bg)));
    --_node-stroke:   var(--border, color-mix(in srgb, var(--fg) 20%, var(--bg)));
    --_group-fill:    var(--bg);
    --_group-hdr:     color-mix(in srgb, var(--fg) 5%, var(--bg));
    --_inner-stroke:  color-mix(in srgb, var(--fg) 12%, var(--bg));
    --_key-badge:     color-mix(in srgb, var(--fg) 10%, var(--bg));
  }
</style>
<defs>
  <marker id="arrowhead" markerWidth="8" markerHeight="4.8" refX="8" refY="2.4" orient="auto">
    <polygon points="0 0, 8 2.4, 0 4.8" fill="var(--_arrow)" />
  </marker>
  <marker id="arrowhead-start" markerWidth="8" markerHeight="4.8" refX="0" refY="2.4" orient="auto-start-reverse">
    <polygon points="8 0, 0 2.4, 8 4.8" fill="var(--_arrow)" />
  </marker>
</defs>
<polyline points="448.65,52 448.65,70" fill="none" stroke="var(--_line)" stroke-width="0.75" marker-end="url(#arrowhead)" />
<polyline points="448.65,106 448.65,115 157.125,115 157.125,124" fill="none" stroke="var(--_line)" stroke-width="0.75" marker-end="url(#arrowhead)" />
<polyline points="448.65,106 448.65,124" fill="none" stroke="var(--_line)" stroke-width="0.75" marker-end="url(#arrowhead)" />
<polyline points="448.65,106 448.65,115 750.9,115 750.9,124" fill="none" stroke="var(--_line)" stroke-width="0.75" marker-end="url(#arrowhead)" />
<polyline points="157.125,160 157.125,196 368.29999999999995,196" fill="none" stroke="var(--_line)" stroke-width="0.75" marker-end="url(#arrowhead)" />
<polyline points="448.65,160 448.65,178" fill="none" stroke="var(--_line)" stroke-width="0.75" marker-end="url(#arrowhead)" />
<polyline points="750.9,160 750.9,196 529,196" fill="none" stroke="var(--_line)" stroke-width="0.75" marker-end="url(#arrowhead)" />
<polyline points="448.65,214 448.65,232" fill="none" stroke="var(--_line)" stroke-width="0.75" marker-end="url(#arrowhead)" />
<polyline points="448.65,268 448.65,286" fill="none" stroke="var(--_line)" stroke-width="0.75" marker-end="url(#arrowhead)" />
<polyline points="448.65,322 448.65,331 343.13,331 343.13,340" fill="none" stroke="var(--_line)" stroke-width="0.75" marker-end="url(#arrowhead)" />
<polyline points="448.65,322 448.65,331 554.17,331 554.17,340" fill="none" stroke="var(--_line)" stroke-width="0.75" marker-end="url(#arrowhead)" />
<polyline points="343.13,376 343.13,429 371.875,429" fill="none" stroke="var(--_line)" stroke-width="0.75" marker-end="url(#arrowhead)" />
<polyline points="554.17,376 554.17,429 525.425,429" fill="none" stroke="var(--_line)" stroke-width="0.75" marker-end="url(#arrowhead)" />
<polyline points="448.65,447 448.65,482" fill="none" stroke="var(--_line)" stroke-width="0.75" marker-end="url(#arrowhead)" />
<polyline points="401.3422799422799,619.39227994228 401.3422799422799,684.2 333.275,684.2 333.275,701.7" fill="none" stroke="var(--_line)" stroke-width="0.75" marker-end="url(#arrowhead)" />
<polyline points="495.95772005772005,619.39227994228 495.95772005772005,684.2 564.025,684.2 564.025,701.7" fill="none" stroke="var(--_line)" stroke-width="0.75" marker-end="url(#arrowhead)" />
<polyline points="333.275,737.7 333.275,755.7" fill="none" stroke="var(--_line)" stroke-width="0.75" marker-end="url(#arrowhead)" />
<polyline points="333.275,791.7 333.275,809.7" fill="none" stroke="var(--_line)" stroke-width="0.75" marker-end="url(#arrowhead)" />
<rect x="243.60999999999999" y="380" width="199.04000000000002" height="27" rx="4" ry="4" fill="var(--bg)" stroke="var(--_inner-stroke)" stroke-width="0.5" />
<text x="343.13" y="393.5" text-anchor="middle" dy="0.35em" font-size="11" font-weight="400" fill="var(--_text-muted)">Approve / Reject / Investigate</text>
<rect x="454.65" y="380" width="199.04000000000002" height="27" rx="4" ry="4" fill="var(--bg)" stroke="var(--_inner-stroke)" stroke-width="0.5" />
<text x="554.17" y="393.5" text-anchor="middle" dy="0.35em" font-size="11" font-weight="400" fill="var(--_text-muted)">Approve / Reject / Investigate</text>
<rect x="414.90999999999997" y="451" width="67.48" height="27" rx="4" ry="4" fill="var(--bg)" stroke="var(--_inner-stroke)" stroke-width="0.5" />
<text x="448.65" y="464.5" text-anchor="middle" dy="0.35em" font-size="11" font-weight="400" fill="var(--_text-muted)">Approve</text>
<rect x="299.53499999999997" y="670.7" width="67.48" height="27" rx="4" ry="4" fill="var(--bg)" stroke="var(--_inner-stroke)" stroke-width="0.5" />
<text x="333.275" y="684.2" text-anchor="middle" dy="0.35em" font-size="11" font-weight="400" fill="var(--_text-muted)">enabled</text>
<rect x="527.425" y="670.7" width="73.2" height="27" rx="4" ry="4" fill="var(--bg)" stroke="var(--_inner-stroke)" stroke-width="0.5" />
<text x="564.025" y="684.2" text-anchor="middle" dy="0.35em" font-size="11" font-weight="400" fill="var(--_text-muted)">disabled</text>
<rect x="343.275" y="16" width="210.75000000000003" height="36" rx="18" ry="18" fill="#e6f3ff" stroke="#0066cc" stroke-width="0.75" />
<rect x="325.4" y="70" width="246.50000000000003" height="36" rx="0" ry="0" fill="#fafafa" stroke="#9e9e9e" stroke-width="0.75" />
<rect x="16" y="124" width="282.25" height="36" rx="0" ry="0" fill="#f0f7ee" stroke="#3a7d44" stroke-width="0.75" />
<rect x="318.25" y="124" width="260.8" height="36" rx="0" ry="0" fill="#f0f7ee" stroke="#3a7d44" stroke-width="0.75" />
<rect x="599.05" y="124" width="303.70000000000005" height="36" rx="0" ry="0" fill="#f0f7ee" stroke="#3a7d44" stroke-width="0.75" />
<rect x="368.29999999999995" y="178" width="160.70000000000002" height="36" rx="0" ry="0" fill="#fafafa" stroke="#9e9e9e" stroke-width="0.75" />
<rect x="296.79999999999995" y="232" width="303.70000000000005" height="36" rx="0" ry="0" fill="#f0f7ee" stroke="#3a7d44" stroke-width="0.75" />
<rect x="357.575" y="286" width="182.15" height="36" rx="0" ry="0" fill="#f0f7ee" stroke="#3a7d44" stroke-width="0.75" />
<rect x="302.105" y="340" width="82.05000000000001" height="36" rx="0" ry="0" fill="#fff8e1" stroke="#f9a825" stroke-width="0.75" />
<rect x="505.99499999999995" y="340" width="96.35000000000001" height="36" rx="0" ry="0" fill="#fff8e1" stroke="#f9a825" stroke-width="0.75" />
<rect x="371.875" y="411" width="153.55" height="36" rx="0" ry="0" fill="#fff8e1" stroke="#f9a825" stroke-width="0.75" />
<polygon points="448.65,482 541,574.35 448.65,666.7 356.29999999999995,574.35" fill="#fafafa" stroke="#9e9e9e" stroke-width="0.75" />
<rect x="224.325" y="701.7" width="217.9" height="36" rx="0" ry="0" fill="#fafafa" stroke="#9e9e9e" stroke-width="0.75" />
<rect x="462.22499999999997" y="701.7" width="203.60000000000002" height="36" rx="0" ry="0" fill="#e8f5e9" stroke="#2e7d32" stroke-width="0.75" />
<rect x="231.47499999999997" y="755.7" width="203.60000000000002" height="36" rx="0" ry="0" fill="#e6f3ff" stroke="#0066cc" stroke-width="0.75" />
<rect x="231.47499999999997" y="809.7" width="203.60000000000002" height="36" rx="0" ry="0" fill="#e8f5e9" stroke="#2e7d32" stroke-width="0.75" />
<text x="448.65" y="34" text-anchor="middle" dy="0.35em" font-size="13" font-weight="500" fill="#003d7a"><tspan x="448.65" y="25.88">Azure Monitor</tspan><tspan x="448.65" y="42.13">Cost Alert</tspan></text>
<text x="448.65" y="88" text-anchor="middle" dy="0.35em" font-size="13" font-weight="500" fill="#212121"><tspan x="448.65" y="79.88">Webhook</tspan><tspan x="448.65" y="96.13">/api/webhooks/alert</tspan></text>
<text x="157.125" y="142" text-anchor="middle" dy="0.35em" font-size="13" font-weight="500" fill="#1b4332"><tspan x="157.125" y="133.88">Cost Analyst</tspan><tspan x="157.125" y="150.13">Cost Management API</tspan></text>
<text x="448.65" y="142" text-anchor="middle" dy="0.35em" font-size="13" font-weight="500" fill="#1b4332"><tspan x="448.65" y="133.88">Resource Agent</tspan><tspan x="448.65" y="150.13">Resource Graph</tspan></text>
<text x="750.9" y="142" text-anchor="middle" dy="0.35em" font-size="13" font-weight="500" fill="#1b4332"><tspan x="750.9" y="133.88">History Agent</tspan><tspan x="750.9" y="150.13">AI Search / Cosmos DB</tspan></text>
<text x="448.65" y="196" text-anchor="middle" dy="0.35em" font-size="13" font-weight="500" fill="#212121">Unified Findings</text>
<text x="448.65" y="250" text-anchor="middle" dy="0.35em" font-size="13" font-weight="500" fill="#1b4332"><tspan x="448.65" y="241.88">Diagnosis Agent</tspan><tspan x="448.65" y="258.13">AI Foundry / GPT-4o</tspan></text>
<text x="448.65" y="304" text-anchor="middle" dy="0.35em" font-size="13" font-weight="500" fill="#1b4332">Remediation Planner</text>
<text x="343.13" y="358" text-anchor="middle" dy="0.35em" font-size="13" font-weight="500" fill="#5d4037">Slack</text>
<text x="554.17" y="358" text-anchor="middle" dy="0.35em" font-size="13" font-weight="500" fill="#5d4037">Discord</text>
<text x="448.65" y="429" text-anchor="middle" dy="0.35em" font-size="13" font-weight="500" fill="#5d4037">Approval Record</text>
<text x="448.65" y="574.35" text-anchor="middle" dy="0.35em" font-size="13" font-weight="500" fill="#212121">Remediation Gate</text>
<text x="333.275" y="719.7" text-anchor="middle" dy="0.35em" font-size="13" font-weight="500" fill="#212121">Remediation Orchestrator</text>
<text x="564.025" y="719.7" text-anchor="middle" dy="0.35em" font-size="13" font-weight="500" fill="#1b5e20">Skipped — safe default</text>
<text x="333.275" y="773.7" text-anchor="middle" dy="0.35em" font-size="13" font-weight="500" fill="#003d7a"><tspan x="333.275" y="765.58">Azure Compute</tspan><tspan x="333.275" y="781.83">stop_vm</tspan></text>
<text x="333.275" y="827.7" text-anchor="middle" dy="0.35em" font-size="13" font-weight="500" fill="#1b5e20">Follow-up Notification</text>
</svg>